:SAMPLES-PER-SECOND 30
:FULLY-SPECIFIED
:DEGREES
546
root  -3.06803 30.7195 -28.5422 85.3048 13.6954 87.4211
Spine  0.372274 2.95691 -7.47487
Spine1  3.6338 15.2675 17.3536
Neck  3.97569e-016 0 -2.38542e-015
Head  15.6391 -11.9373 15.7463
R_Clavicle  0.257498 -13.0467 0.183424
R_UpperArm  -5.09859 22.3921 5.2645
R_Forearm  26.9611 -22.8444 20.1044
R_Hand  -0.663477 7.35482 -16.0904
L_Clavicle  -0.602489 18.1958 -4.24098
L_UpperArm  -14.8838 21.3723 21.8546
L_Forearm  -5.14333 36.6105 39.671
L_Hand  -0.104402 1.05336 -1.72909
L_Thigh  -2.74554 2.2523 2.59732
L_Calf  -11.1971 0.889393 -6.87346
L_Foot  2.71784 9.04319 1.78328
L_Toe0  -3.76254 0.211577 -3.46028
R_Thigh  11.6214 1.80089 -18.1129
R_Calf  -1.89654 4.05808 13.0293
R_Foot  -0.652299 2.80465 15.7947
R_Toe0  -1.78852 -0.272788 -17.3235
547
root  -3.10403 30.6657 -29.4381 85.7713 13.7118 86.4779
Spine  -0.64735 2.81605 -9.18029
Spine1  3.76574 17.0583 20.5102
Neck  3.97569e-016 0 -2.38542e-015
Head  16.3257 -11.9292 14.825
R_Clavicle  0.268931 -14.5462 -0.0325412
R_UpperArm  -0.378686 22.1806 7.11481
R_Forearm  26.0534 -23.6954 20.211
R_Hand  -0.890076 7.19352 -17.8826
L_Clavicle  -0.645935 18.8448 -4.18308
L_UpperArm  -6.92173 17.6985 20.2699
L_Forearm  -8.66177 33.6636 37.4524
L_Hand  -0.199754 1.21201 -3.27293
L_Thigh  -0.894526 3.3726 -0.160325
L_Calf  -7.75002 1.91103 -14.4578
L_Foot  2.73168 7.92669 2.87829
L_Toe0  -4.56225 0.390011 -1.66115
R_Thigh  12.4377 2.89919 -16.3037
R_Calf  -2.16915 3.91029 12.6253
R_Foot  -0.948693 1.84193 14.5482
R_Toe0  -1.78851 -0.272788 -17.3235
548
root  -3.08503 30.7558 -30.2727 86.0107 13.4824 86.1056
Spine  -1.41733 2.67664 -10.5707
Spine1  3.3784 17.2937 21.1498
Neck  3.97569e-016 0 -2.38542e-015
Head  16.6588 -11.9128 15.9102
R_Clavicle  0.308502 -16.4418 0.0139066
R_UpperArm  9.43137 19.5816 10.2662
R_Forearm  23.8485 -27.2308 20.4397
R_Hand  -1.0364 7.01286 -19.0591
L_Clavicle  -0.652091 19.145 -3.70053
L_UpperArm  -5.29622 14.428 18.5956
L_Forearm  -6.23592 33.6165 37.2464
L_Hand  -0.23642 0.695593 -4.24426
L_Thigh  -0.867501 4.54806 -4.29685
L_Calf  -5.69829 2.35824 -17.8637
L_Foot  2.64308 7.90704 2.57889
L_Toe0  -4.70329 0.44467 -1.13853
R_Thigh  13.1126 3.33248 -14.7045
R_Calf  -2.09353 4.1137 13.2917
R_Foot  -1.11155 0.9575 12.6452
R_Toe0  -1.78851 -0.272788 -17.3235
549
root  -3.03302 31.0219 -31.0529 86.4349 13.3235 86.2199
Spine  -1.93926 2.2958 -11.5831
Spine1  2.61919 16.6067 19.6709
Neck  3.97569e-016 0 -2.38542e-015
Head  16.039 -11.3477 18.9093
R_Clavicle  0.335743 -17.9824 -0.0549588
R_UpperArm  23.4829 14.9288 15.1175
R_Forearm  19.7859 -31.9534 20.8327
R_Hand  -0.919875 7.25591 -18.1347
L_Clavicle  -0.568036 17.8918 -3.42402
L_UpperArm  -10.244 13.3076 16.6467
L_Forearm  0.100279 35.805 38.3067
L_Hand  -0.194233 -0.342825 -4.25093
L_Thigh  -2.0188 5.71633 -9.69525
L_Calf  -5.31433 2.20774 -16.7388
L_Foot  2.34094 7.58895 1.77605
L_Toe0  -5.61444 0.546877 -0.985662
R_Thigh  14.176 3.14028 -13.8723
R_Calf  -2.04862 4.76513 15.3864
R_Foot  -1.2483 -0.171092 10.0224
R_Toe0  -1.7885 -0.272789 -17.3235
550
root  -2.97405 31.4274 -31.7759 87.6917 13.0345 86.5022
Spine  -2.56306 1.22138 -12.7947
Spine1  1.60999 16.4224 17.2657
Neck  3.97569e-016 0 -2.38542e-015
Head  14.9238 -10.5467 23.2741
R_Clavicle  0.355309 -19.2279 -0.264973
R_UpperArm  34.4699 9.89952 20.6821
R_Forearm  15.825 -36.3242 22.3695
R_Hand  -0.708151 7.74748 -16.5769
L_Clavicle  -0.474845 16.3697 -3.4004
L_UpperArm  -16.8578 13.1864 14.988
L_Forearm  5.39504 38.0486 40.1758
L_Hand  -0.132444 -1.38964 -3.6977
L_Thigh  -2.91223 6.73868 -15.3347
L_Calf  -4.75951 1.55543 -11.8378
L_Foot  2.12762 7.10089 1.44862
L_Toe0  -5.95434 0.674281 0.00259757
R_Thigh  15.3719 2.91468 -13.7363
R_Calf  -2.05778 5.85166 18.9307
R_Foot  -1.31174 -1.47063 6.77112
R_Toe0  -1.7885 -0.272789 -17.3235
551
root  -2.89967 31.7927 -32.4897 89.92 12.1374 86.6015
Spine  -3.51837 -0.53888 -14.5557
Spine1  0.330393 17.4028 14.6273
Neck  3.97569e-016 0 -2.38542e-015
Head  13.9997 -10.0633 27.9347
R_Clavicle  0.384865 -20.5119 -0.225634
R_UpperArm  39.748 5.96721 25.963
R_Forearm  11.0798 -40.4922 25.0481
R_Hand  -0.621528 8.05083 -15.9996
L_Clavicle  -0.457019 16.0717 -3.1032
L_UpperArm  -20.6764 12.1976 13.7663
L_Forearm  7.07015 39.6189 41.9858
L_Hand  -0.101378 -2.01416 -3.41201
L_Thigh  -2.91396 7.81163 -19.9413
L_Calf  -3.38136 0.591066 -4.72888
L_Foot  1.97408 6.58321 1.36413
L_Toe0  -5.41305 0.942385 4.15752
R_Thigh  16.6022 2.98174 -13.2299
R_Calf  -1.4876 6.96784 22.6617
R_Foot  -1.16218 -2.35807 3.47514
R_Toe0  -1.7885 -0.272789 -17.3235
552
root  -2.79679 31.9966 -33.2791 92.4931 10.5597 86.3687
Spine  -4.53903 -2.22193 -16.1041
Spine1  -1.30904 18.636 11.0189
Neck  3.97569e-016 0 -2.38542e-015
Head  13.2374 -9.8233 31.8351
R_Clavicle  0.409103 -21.4791 0.196571
R_UpperArm  40.1606 2.33482 31.0959
R_Forearm  6.83982 -43.1981 27.671
R_Hand  -0.546964 8.55853 -15.6012
L_Clavicle  -0.47812 16.5012 -2.36439
L_UpperArm  -21.3668 10.5992 12.7683
L_Forearm  6.81445 40.4441 42.7694
L_Hand  -0.0970859 -2.08876 -3.35905
L_Thigh  -2.57198 9.18683 -23.2258
L_Calf  -1.40664 -0.550149 3.59363
L_Foot  1.66936 5.14411 1.64534
L_Toe0  -4.11861 1.04677 12.065
R_Thigh  18.4382 3.03555 -11.5325
R_Calf  -0.467747 7.76777 25.4058
R_Foot  -0.918961 -2.88443 0.610058
R_Toe0  -1.7885 -0.272789 -17.3235
553
root  -2.67273 32.0677 -34.1698 94.8832 8.96949 85.7765
Spine  -5.29101 -3.06833 -16.0978
Spine1  -3.26627 19.295 5.72213
Neck  3.97569e-016 0 -2.38542e-015
Head  12.3743 -9.53848 34.2601
R_Clavicle  0.41586 -21.7411 0.633755
R_UpperArm  39.313 -2.08418 36.7888
R_Forearm  4.5417 -43.7023 28.1791
R_Hand  -0.318147 9.27391 -14.2186
L_Clavicle  -0.493465 16.9164 -1.67911
L_UpperArm  -19.6691 9.26108 11.9406
L_Forearm  5.31599 39.7721 41.7892
L_Hand  -0.0888785 -1.77191 -2.79741
L_Thigh  -2.43303 10.7603 -25.9598
L_Calf  0.761066 -1.80866 12.8867
L_Foot  1.8669 3.48091 4.24102
L_Toe0  -1.95871 0.382117 17.1089
R_Thigh  21.1635 2.89479 -9.24605
R_Calf  -0.117932 8.30496 27.3106
R_Foot  -0.767728 -3.64996 -1.91776
R_Toe0  -1.7885 -0.272789 -17.3235
554
root  -2.5235 32.0747 -35.151 97.4404 8.22787 85.0212
Spine  -5.895 -3.63869 -14.271
Spine1  -5.14965 20.3221 0.476773
Neck  3.97569e-016 0 -2.38542e-015
Head  11.6899 -9.49641 34.5581
R_Clavicle  0.416561 -21.7284 0.815744
R_UpperArm  37.9214 -5.7641 42.6824
R_Forearm  4.85996 -42.8357 26.8933
R_Hand  -0.116391 9.50158 -12.9047
L_Clavicle  -0.533804 17.958 -1.3058
L_UpperArm  -15.2945 7.41417 10.9022
L_Forearm  1.06616 37.1727 39.5305
L_Hand  -0.0624437 -1.35139 -1.79105
L_Thigh  -2.06306 11.9717 -28.5578
L_Calf  1.65631 -3.02871 22.2693
L_Foot  3.76312 4.39609 10.8399
L_Toe0  -0.959596 0.0736229 9.72778
R_Thigh  24.0185 2.64501 -7.56141
R_Calf  -0.338701 8.819 29.0085
R_Foot  -0.625182 -4.57704 -4.45677
R_Toe0  -1.7885 -0.272789 -17.3235
555
root  -2.31019 32.0764 -36.2407 100.589 8.38644 84.9423
Spine  -6.57662 -5.83798 -12.0023
Spine1  -6.31719 23.2433 -1.56601
Neck  3.97569e-016 0 -2.38542e-015
Head  11.7316 -10.0259 32.3799
R_Clavicle  0.419501 -21.953 0.857638
R_UpperArm  36.5745 -6.50293 46.9681
R_Forearm  5.69432 -42.5987 26.0434
R_Hand  -0.191159 9.2342 -13.295
L_Clavicle  -0.605857 19.8287 -1.15094
L_UpperArm  -9.2055 4.25965 8.77842
L_Forearm  -5.21377 33.4697 37.5138
L_Hand  -0.0576934 -1.1272 -1.56531
L_Thigh  -0.55285 12.224 -29.7035
L_Calf  1.71546 -3.88076 29.2236
L_Foot  5.4004 4.89161 16.4352
L_Toe0  0.0220032 0.00766447 -1.23289
R_Thigh  25.6116 1.60613 -6.78951
R_Calf  0.825388 9.83223 30.6618
R_Foot  -0.321151 -5.15318 -7.27351
R_Toe0  -1.7885 -0.272789 -17.3235
556
root  -1.99873 32.0962 -37.4893 103.712 8.54763 86.3748
Spine  -7.18837 -10.3097 -10.2403
Spine1  -6.27131 27.2436 -0.096314
Neck  3.97569e-016 0 -2.38542e-015
Head  12.3099 -10.5493 28.7011
R_Clavicle  0.422198 -22.1712 0.968668
R_UpperArm  36.551 -5.13376 48.229
R_Forearm  4.94422 -43.7035 27.0086
R_Hand  -0.422889 9.17305 -14.9309
L_Clavicle  -0.651578 20.7679 -1.3232
L_UpperArm  -4.69665 1.06906 5.33784
L_Forearm  -9.77254 30.2579 36.3673
L_Hand  -0.106408 -1.23455 -2.86317
L_Thigh  1.55184 10.2798 -28.1444
L_Calf  1.53433 -4.04661 30.7225
L_Foot  6.23866 5.51652 18.5746
L_Toe0  0.519874 0.0332949 -6.30676
R_Thigh  24.6765 -1.12951 -6.14829
R_Calf  4.14128 11.8397 32.2152
R_Foot  0.109948 -5.5952 -10.5508
R_Toe0  -1.78851 -0.272788 -17.3235
